<svg xmlns="http://www.w3.org/2000/svg" viewBox="0 0 960 340" font-family="ui-monospace,'SF Mono',Menlo,Consolas,'Liberation Mono',monospace">
  <style>
    .h    { fill:#56d364; font-size:13px; }
    .dim  { fill:#3fa060; font-size:13px; }
    .menu { fill:#2e5c41; font-size:12px; letter-spacing:2px; }
    .sel  { fill:#7ee787; font-size:12px; letter-spacing:2px; }
    .px   { fill:#3fdd78; opacity:0; animation:on .01s steps(1) forwards; }
    .ok   { fill:#7ee787; font-size:14px; opacity:0; animation:on .01s steps(1) forwards; }
    .okb  { fill:#3fdd78; }
    .d1   { animation-delay:1.0s; }
    .d2   { animation-delay:1.2s; }
    .d3   { animation-delay:1.4s; }
    .d4   { animation-delay:1.6s; }
    .cur  { fill:#7ee787; font-size:14px; opacity:0;
            animation:on .01s steps(1) 1.7s forwards, blink 1.1s steps(1) 1.8s infinite; }
    .glitch { animation:glitch 7s steps(1) 3s infinite; }
    .sweep  { animation:sweep 9s linear infinite; }
    @keyframes on    { to { opacity:1; } }
    @keyframes blink { 50% { opacity:0; } }
    @keyframes glitch {
      0%   { transform:translate(0,0); }
      96.5%{ transform:translate(0,0); }
      97%  { transform:translate(3px,-1px); }
      97.5%{ transform:translate(-3px,1px); }
      98%  { transform:translate(0,0); }
      100% { transform:translate(0,0); }
    }
    @keyframes sweep {
      from { transform:translateY(-40px); }
      to   { transform:translateY(350px); }
    }
  </style>
  <defs>
    <filter id="glow" x="-20%" y="-20%" width="140%" height="140%">
      <feGaussianBlur stdDeviation="3"/>
    </filter>
    <linearGradient id="scan" x1="0" y1="0" x2="0" y2="1">
      <stop offset="0" stop-color="#7ee787" stop-opacity="0"/>
      <stop offset=".5" stop-color="#7ee787" stop-opacity=".07"/>
      <stop offset="1" stop-color="#7ee787" stop-opacity="0"/>
    </linearGradient>
  </defs>

  <text class="h" x="36" y="26" xml:space="preserve">DAVIDLIU BIOS (TM)  COPYRIGHT (C) 2026</text>
  <text class="dim" x="924" y="26" text-anchor="end" xml:space="preserve">PORT......3000</text>
  <line x1="36" y1="40" x2="924" y2="40" stroke="#1f3d2b"/>
  <text class="menu" x="36"  y="62">SUMMARY</text>
  <text class="sel"  x="150" y="62">▸ BOOT SEQ</text>
  <text class="menu" x="290" y="62">AGENTS</text>
  <text class="menu" x="400" y="62">SHIP</text>
  <text class="menu" x="480" y="62">MORE+</text>
  <text class="menu" x="924" y="62" text-anchor="end" xml:space="preserve">MEM TEST: 640K OK</text>

  <g class="glitch">
    <g filter="url(#glow)" opacity=".6"><use href="#pxname"/></g>
    <g id="pxname">
    <rect class="px" x="46" y="80" width="15" height="15" rx="2" style="animation-delay:0ms"/>
    <rect class="px" x="63" y="80" width="15" height="15" rx="2" style="animation-delay:14ms"/>
    <rect class="px" x="80" y="80" width="15" height="15" rx="2" style="animation-delay:28ms"/>
    <rect class="px" x="97" y="80" width="15" height="15" rx="2" style="animation-delay:42ms"/>
    <rect class="px" x="46" y="97" width="15" height="15" rx="2" style="animation-delay:8ms"/>
    <rect class="px" x="114" y="97" width="15" height="15" rx="2" style="animation-delay:64ms"/>
    <rect class="px" x="46" y="114" width="15" height="15" rx="2" style="animation-delay:16ms"/>
    <rect class="px" x="114" y="114" width="15" height="15" rx="2" style="animation-delay:72ms"/>
    <rect class="px" x="46" y="131" width="15" height="15" rx="2" style="animation-delay:24ms"/>
    <rect class="px" x="114" y="131" width="15" height="15" rx="2" style="animation-delay:80ms"/>
    <rect class="px" x="46" y="148" width="15" height="15" rx="2" style="animation-delay:32ms"/>
    <rect class="px" x="114" y="148" width="15" height="15" rx="2" style="animation-delay:88ms"/>
    <rect class="px" x="46" y="165" width="15" height="15" rx="2" style="animation-delay:40ms"/>
    <rect class="px" x="114" y="165" width="15" height="15" rx="2" style="animation-delay:96ms"/>
    <rect class="px" x="46" y="182" width="15" height="15" rx="2" style="animation-delay:48ms"/>
    <rect class="px" x="63" y="182" width="15" height="15" rx="2" style="animation-delay:62ms"/>
    <rect class="px" x="80" y="182" width="15" height="15" rx="2" style="animation-delay:76ms"/>
    <rect class="px" x="97" y="182" width="15" height="15" rx="2" style="animation-delay:90ms"/>
    <rect class="px" x="165" y="80" width="15" height="15" rx="2" style="animation-delay:98ms"/>
    <rect class="px" x="182" y="80" width="15" height="15" rx="2" style="animation-delay:112ms"/>
    <rect class="px" x="199" y="80" width="15" height="15" rx="2" style="animation-delay:126ms"/>
    <rect class="px" x="148" y="97" width="15" height="15" rx="2" style="animation-delay:92ms"/>
    <rect class="px" x="216" y="97" width="15" height="15" rx="2" style="animation-delay:148ms"/>
    <rect class="px" x="148" y="114" width="15" height="15" rx="2" style="animation-delay:100ms"/>
    <rect class="px" x="216" y="114" width="15" height="15" rx="2" style="animation-delay:156ms"/>
    <rect class="px" x="148" y="131" width="15" height="15" rx="2" style="animation-delay:108ms"/>
    <rect class="px" x="165" y="131" width="15" height="15" rx="2" style="animation-delay:122ms"/>
    <rect class="px" x="182" y="131" width="15" height="15" rx="2" style="animation-delay:136ms"/>
    <rect class="px" x="199" y="131" width="15" height="15" rx="2" style="animation-delay:150ms"/>
    <rect class="px" x="216" y="131" width="15" height="15" rx="2" style="animation-delay:164ms"/>
    <rect class="px" x="148" y="148" width="15" height="15" rx="2" style="animation-delay:116ms"/>
    <rect class="px" x="216" y="148" width="15" height="15" rx="2" style="animation-delay:172ms"/>
    <rect class="px" x="148" y="165" width="15" height="15" rx="2" style="animation-delay:124ms"/>
    <rect class="px" x="216" y="165" width="15" height="15" rx="2" style="animation-delay:180ms"/>
    <rect class="px" x="148" y="182" width="15" height="15" rx="2" style="animation-delay:132ms"/>
    <rect class="px" x="216" y="182" width="15" height="15" rx="2" style="animation-delay:188ms"/>
    <rect class="px" x="250" y="80" width="15" height="15" rx="2" style="animation-delay:168ms"/>
    <rect class="px" x="318" y="80" width="15" height="15" rx="2" style="animation-delay:224ms"/>
    <rect class="px" x="250" y="97" width="15" height="15" rx="2" style="animation-delay:176ms"/>
    <rect class="px" x="318" y="97" width="15" height="15" rx="2" style="animation-delay:232ms"/>
    <rect class="px" x="250" y="114" width="15" height="15" rx="2" style="animation-delay:184ms"/>
    <rect class="px" x="318" y="114" width="15" height="15" rx="2" style="animation-delay:240ms"/>
    <rect class="px" x="250" y="131" width="15" height="15" rx="2" style="animation-delay:192ms"/>
    <rect class="px" x="318" y="131" width="15" height="15" rx="2" style="animation-delay:248ms"/>
    <rect class="px" x="250" y="148" width="15" height="15" rx="2" style="animation-delay:200ms"/>
    <rect class="px" x="318" y="148" width="15" height="15" rx="2" style="animation-delay:256ms"/>
    <rect class="px" x="267" y="165" width="15" height="15" rx="2" style="animation-delay:222ms"/>
    <rect class="px" x="301" y="165" width="15" height="15" rx="2" style="animation-delay:250ms"/>
    <rect class="px" x="284" y="182" width="15" height="15" rx="2" style="animation-delay:244ms"/>
    <rect class="px" x="352" y="80" width="15" height="15" rx="2" style="animation-delay:252ms"/>
    <rect class="px" x="369" y="80" width="15" height="15" rx="2" style="animation-delay:266ms"/>
    <rect class="px" x="386" y="80" width="15" height="15" rx="2" style="animation-delay:280ms"/>
    <rect class="px" x="403" y="80" width="15" height="15" rx="2" style="animation-delay:294ms"/>
    <rect class="px" x="420" y="80" width="15" height="15" rx="2" style="animation-delay:308ms"/>
    <rect class="px" x="386" y="97" width="15" height="15" rx="2" style="animation-delay:288ms"/>
    <rect class="px" x="386" y="114" width="15" height="15" rx="2" style="animation-delay:296ms"/>
    <rect class="px" x="386" y="131" width="15" height="15" rx="2" style="animation-delay:304ms"/>
    <rect class="px" x="386" y="148" width="15" height="15" rx="2" style="animation-delay:312ms"/>
    <rect class="px" x="386" y="165" width="15" height="15" rx="2" style="animation-delay:320ms"/>
    <rect class="px" x="352" y="182" width="15" height="15" rx="2" style="animation-delay:300ms"/>
    <rect class="px" x="369" y="182" width="15" height="15" rx="2" style="animation-delay:314ms"/>
    <rect class="px" x="386" y="182" width="15" height="15" rx="2" style="animation-delay:328ms"/>
    <rect class="px" x="403" y="182" width="15" height="15" rx="2" style="animation-delay:342ms"/>
    <rect class="px" x="420" y="182" width="15" height="15" rx="2" style="animation-delay:356ms"/>
    <rect class="px" x="454" y="80" width="15" height="15" rx="2" style="animation-delay:336ms"/>
    <rect class="px" x="471" y="80" width="15" height="15" rx="2" style="animation-delay:350ms"/>
    <rect class="px" x="488" y="80" width="15" height="15" rx="2" style="animation-delay:364ms"/>
    <rect class="px" x="505" y="80" width="15" height="15" rx="2" style="animation-delay:378ms"/>
    <rect class="px" x="454" y="97" width="15" height="15" rx="2" style="animation-delay:344ms"/>
    <rect class="px" x="522" y="97" width="15" height="15" rx="2" style="animation-delay:400ms"/>
    <rect class="px" x="454" y="114" width="15" height="15" rx="2" style="animation-delay:352ms"/>
    <rect class="px" x="522" y="114" width="15" height="15" rx="2" style="animation-delay:408ms"/>
    <rect class="px" x="454" y="131" width="15" height="15" rx="2" style="animation-delay:360ms"/>
    <rect class="px" x="522" y="131" width="15" height="15" rx="2" style="animation-delay:416ms"/>
    <rect class="px" x="454" y="148" width="15" height="15" rx="2" style="animation-delay:368ms"/>
    <rect class="px" x="522" y="148" width="15" height="15" rx="2" style="animation-delay:424ms"/>
    <rect class="px" x="454" y="165" width="15" height="15" rx="2" style="animation-delay:376ms"/>
    <rect class="px" x="522" y="165" width="15" height="15" rx="2" style="animation-delay:432ms"/>
    <rect class="px" x="454" y="182" width="15" height="15" rx="2" style="animation-delay:384ms"/>
    <rect class="px" x="471" y="182" width="15" height="15" rx="2" style="animation-delay:398ms"/>
    <rect class="px" x="488" y="182" width="15" height="15" rx="2" style="animation-delay:412ms"/>
    <rect class="px" x="505" y="182" width="15" height="15" rx="2" style="animation-delay:426ms"/>
    <rect class="px" x="624" y="80" width="15" height="15" rx="2" style="animation-delay:476ms"/>
    <rect class="px" x="624" y="97" width="15" height="15" rx="2" style="animation-delay:484ms"/>
    <rect class="px" x="624" y="114" width="15" height="15" rx="2" style="animation-delay:492ms"/>
    <rect class="px" x="624" y="131" width="15" height="15" rx="2" style="animation-delay:500ms"/>
    <rect class="px" x="624" y="148" width="15" height="15" rx="2" style="animation-delay:508ms"/>
    <rect class="px" x="624" y="165" width="15" height="15" rx="2" style="animation-delay:516ms"/>
    <rect class="px" x="624" y="182" width="15" height="15" rx="2" style="animation-delay:524ms"/>
    <rect class="px" x="641" y="182" width="15" height="15" rx="2" style="animation-delay:538ms"/>
    <rect class="px" x="658" y="182" width="15" height="15" rx="2" style="animation-delay:552ms"/>
    <rect class="px" x="675" y="182" width="15" height="15" rx="2" style="animation-delay:566ms"/>
    <rect class="px" x="692" y="182" width="15" height="15" rx="2" style="animation-delay:580ms"/>
    <rect class="px" x="726" y="80" width="15" height="15" rx="2" style="animation-delay:560ms"/>
    <rect class="px" x="743" y="80" width="15" height="15" rx="2" style="animation-delay:574ms"/>
    <rect class="px" x="760" y="80" width="15" height="15" rx="2" style="animation-delay:588ms"/>
    <rect class="px" x="777" y="80" width="15" height="15" rx="2" style="animation-delay:602ms"/>
    <rect class="px" x="794" y="80" width="15" height="15" rx="2" style="animation-delay:616ms"/>
    <rect class="px" x="760" y="97" width="15" height="15" rx="2" style="animation-delay:596ms"/>
    <rect class="px" x="760" y="114" width="15" height="15" rx="2" style="animation-delay:604ms"/>
    <rect class="px" x="760" y="131" width="15" height="15" rx="2" style="animation-delay:612ms"/>
    <rect class="px" x="760" y="148" width="15" height="15" rx="2" style="animation-delay:620ms"/>
    <rect class="px" x="760" y="165" width="15" height="15" rx="2" style="animation-delay:628ms"/>
    <rect class="px" x="726" y="182" width="15" height="15" rx="2" style="animation-delay:608ms"/>
    <rect class="px" x="743" y="182" width="15" height="15" rx="2" style="animation-delay:622ms"/>
    <rect class="px" x="760" y="182" width="15" height="15" rx="2" style="animation-delay:636ms"/>
    <rect class="px" x="777" y="182" width="15" height="15" rx="2" style="animation-delay:650ms"/>
    <rect class="px" x="794" y="182" width="15" height="15" rx="2" style="animation-delay:664ms"/>
    <rect class="px" x="828" y="80" width="15" height="15" rx="2" style="animation-delay:644ms"/>
    <rect class="px" x="896" y="80" width="15" height="15" rx="2" style="animation-delay:700ms"/>
    <rect class="px" x="828" y="97" width="15" height="15" rx="2" style="animation-delay:652ms"/>
    <rect class="px" x="896" y="97" width="15" height="15" rx="2" style="animation-delay:708ms"/>
    <rect class="px" x="828" y="114" width="15" height="15" rx="2" style="animation-delay:660ms"/>
    <rect class="px" x="896" y="114" width="15" height="15" rx="2" style="animation-delay:716ms"/>
    <rect class="px" x="828" y="131" width="15" height="15" rx="2" style="animation-delay:668ms"/>
    <rect class="px" x="896" y="131" width="15" height="15" rx="2" style="animation-delay:724ms"/>
    <rect class="px" x="828" y="148" width="15" height="15" rx="2" style="animation-delay:676ms"/>
    <rect class="px" x="896" y="148" width="15" height="15" rx="2" style="animation-delay:732ms"/>
    <rect class="px" x="828" y="165" width="15" height="15" rx="2" style="animation-delay:684ms"/>
    <rect class="px" x="896" y="165" width="15" height="15" rx="2" style="animation-delay:740ms"/>
    <rect class="px" x="845" y="182" width="15" height="15" rx="2" style="animation-delay:706ms"/>
    <rect class="px" x="862" y="182" width="15" height="15" rx="2" style="animation-delay:720ms"/>
    <rect class="px" x="879" y="182" width="15" height="15" rx="2" style="animation-delay:734ms"/>
    </g>
  </g>

  <text class="ok d1" x="36" y="240" xml:space="preserve"><tspan class="okb">[ OK ]</tspan>  swe @ western university · 4th year</text>
  <text class="ok d2" x="36" y="262" xml:space="preserve"><tspan class="okb">[ OK ]</tspan>  swe intern @ j.d. power</text>
  <text class="ok d3" x="36" y="284" xml:space="preserve"><tspan class="okb">[ OK ]</tspan>  founder &amp; president @ tethos · 100+ devs · $300k+ saved for nonprofits</text>
  <text class="ok d4" x="36" y="314" xml:space="preserve">$ open davidliu.work</text>
  <text class="cur" x="212" y="314">▮</text>

  <rect class="sweep" x="0" y="0" width="960" height="34" fill="url(#scan)"/>
</svg>
